<svg xmlns="http://www.w3.org/2000/svg" xmlns:xlink="http://www.w3.org/1999/xlink" width="834" height="380.774" viewBox="0 0 834 380.774">
  <defs>
    <linearGradient id="linear-gradient" x1="0.5" x2="0.5" y2="1" gradientUnits="objectBoundingBox">
      <stop offset="0" stop-color="#22007d"/>
      <stop offset="1" stop-color="#5d0651"/>
    </linearGradient>
    <linearGradient id="linear-gradient-2" x1="0.012" y1="0.432" x2="0.983" y2="0.551" gradientUnits="objectBoundingBox">
      <stop offset="0" stop-color="#360324"/>
      <stop offset="1" stop-color="#0e096f"/>
    </linearGradient>
    <clipPath id="clip-path">
      <rect width="87" height="99" fill="none"/>
    </clipPath>
  </defs>
  <g id="Group_418" data-name="Group 418" transform="translate(0 -719.226)">
    <rect id="Rectangle_715" data-name="Rectangle 715" width="834" height="366" transform="translate(0 724)" fill="url(#linear-gradient)"/>
    <g id="Group_392" data-name="Group 392" transform="translate(22.836 719.226)">
      <rect id="Rectangle_685" data-name="Rectangle 685" width="262.653" height="35.448" rx="17.724" transform="translate(0 201.204) rotate(-50)" opacity="0.485" fill="url(#linear-gradient-2)"/>
      <rect id="Rectangle_686" data-name="Rectangle 686" width="173.864" height="23.294" rx="11.647" transform="translate(1.226 153.829) rotate(-50)" opacity="0.485" fill="url(#linear-gradient-2)"/>
      <rect id="Rectangle_687" data-name="Rectangle 687" width="173.864" height="23.294" rx="11.647" transform="translate(86.976 164.295) rotate(-50)" opacity="0.485" fill="url(#linear-gradient-2)"/>
    </g>
    <g id="Repeat_Grid_17" data-name="Repeat Grid 17" transform="translate(136 1001)" opacity="0.305" clip-path="url(#clip-path)">
      <g transform="translate(-630 -1295)">
        <circle id="Ellipse_1" data-name="Ellipse 1" cx="4.5" cy="4.5" r="4.5" transform="translate(630 1307)" fill="rgba(237,14,14,0.41)"/>
      </g>
      <g transform="translate(-607 -1295)">
        <circle id="Ellipse_1-2" data-name="Ellipse 1" cx="4.5" cy="4.5" r="4.5" transform="translate(630 1307)" fill="rgba(237,14,14,0.41)"/>
      </g>
      <g transform="translate(-584 -1295)">
        <circle id="Ellipse_1-3" data-name="Ellipse 1" cx="4.5" cy="4.5" r="4.5" transform="translate(630 1307)" fill="rgba(237,14,14,0.41)"/>
      </g>
      <g transform="translate(-561 -1295)">
        <circle id="Ellipse_1-4" data-name="Ellipse 1" cx="4.5" cy="4.5" r="4.5" transform="translate(630 1307)" fill="rgba(237,14,14,0.41)"/>
      </g>
      <g transform="translate(-630 -1276)">
        <circle id="Ellipse_1-5" data-name="Ellipse 1" cx="4.5" cy="4.5" r="4.5" transform="translate(630 1307)" fill="rgba(237,14,14,0.41)"/>
      </g>
      <g transform="translate(-607 -1276)">
        <circle id="Ellipse_1-6" data-name="Ellipse 1" cx="4.5" cy="4.5" r="4.5" transform="translate(630 1307)" fill="rgba(237,14,14,0.41)"/>
      </g>
      <g transform="translate(-584 -1276)">
        <circle id="Ellipse_1-7" data-name="Ellipse 1" cx="4.5" cy="4.5" r="4.5" transform="translate(630 1307)" fill="rgba(237,14,14,0.41)"/>
      </g>
      <g transform="translate(-561 -1276)">
        <circle id="Ellipse_1-8" data-name="Ellipse 1" cx="4.5" cy="4.5" r="4.5" transform="translate(630 1307)" fill="rgba(237,14,14,0.41)"/>
      </g>
      <g transform="translate(-630 -1257)">
        <circle id="Ellipse_1-9" data-name="Ellipse 1" cx="4.5" cy="4.5" r="4.5" transform="translate(630 1307)" fill="rgba(237,14,14,0.41)"/>
      </g>
      <g transform="translate(-607 -1257)">
        <circle id="Ellipse_1-10" data-name="Ellipse 1" cx="4.5" cy="4.5" r="4.5" transform="translate(630 1307)" fill="rgba(237,14,14,0.41)"/>
      </g>
      <g transform="translate(-584 -1257)">
        <circle id="Ellipse_1-11" data-name="Ellipse 1" cx="4.5" cy="4.5" r="4.5" transform="translate(630 1307)" fill="rgba(237,14,14,0.41)"/>
      </g>
      <g transform="translate(-561 -1257)">
        <circle id="Ellipse_1-12" data-name="Ellipse 1" cx="4.5" cy="4.5" r="4.5" transform="translate(630 1307)" fill="rgba(237,14,14,0.41)"/>
      </g>
      <g transform="translate(-630 -1238)">
        <circle id="Ellipse_1-13" data-name="Ellipse 1" cx="4.5" cy="4.5" r="4.5" transform="translate(630 1307)" fill="rgba(237,14,14,0.41)"/>
      </g>
      <g transform="translate(-607 -1238)">
        <circle id="Ellipse_1-14" data-name="Ellipse 1" cx="4.5" cy="4.5" r="4.5" transform="translate(630 1307)" fill="rgba(237,14,14,0.41)"/>
      </g>
      <g transform="translate(-584 -1238)">
        <circle id="Ellipse_1-15" data-name="Ellipse 1" cx="4.5" cy="4.5" r="4.5" transform="translate(630 1307)" fill="rgba(237,14,14,0.41)"/>
      </g>
      <g transform="translate(-561 -1238)">
        <circle id="Ellipse_1-16" data-name="Ellipse 1" cx="4.5" cy="4.5" r="4.5" transform="translate(630 1307)" fill="rgba(237,14,14,0.41)"/>
      </g>
      <g transform="translate(-630 -1219)">
        <circle id="Ellipse_1-17" data-name="Ellipse 1" cx="4.5" cy="4.5" r="4.5" transform="translate(630 1307)" fill="rgba(237,14,14,0.41)"/>
      </g>
      <g transform="translate(-607 -1219)">
        <circle id="Ellipse_1-18" data-name="Ellipse 1" cx="4.5" cy="4.5" r="4.5" transform="translate(630 1307)" fill="rgba(237,14,14,0.41)"/>
      </g>
      <g transform="translate(-584 -1219)">
        <circle id="Ellipse_1-19" data-name="Ellipse 1" cx="4.5" cy="4.5" r="4.5" transform="translate(630 1307)" fill="rgba(237,14,14,0.41)"/>
      </g>
      <g transform="translate(-561 -1219)">
        <circle id="Ellipse_1-20" data-name="Ellipse 1" cx="4.5" cy="4.5" r="4.5" transform="translate(630 1307)" fill="rgba(237,14,14,0.41)"/>
      </g>
      <g transform="translate(-630 -1200)">
        <circle id="Ellipse_1-21" data-name="Ellipse 1" cx="4.5" cy="4.5" r="4.5" transform="translate(630 1307)" fill="rgba(237,14,14,0.41)"/>
      </g>
      <g transform="translate(-607 -1200)">
        <circle id="Ellipse_1-22" data-name="Ellipse 1" cx="4.5" cy="4.5" r="4.5" transform="translate(630 1307)" fill="rgba(237,14,14,0.41)"/>
      </g>
      <g transform="translate(-584 -1200)">
        <circle id="Ellipse_1-23" data-name="Ellipse 1" cx="4.5" cy="4.5" r="4.5" transform="translate(630 1307)" fill="rgba(237,14,14,0.41)"/>
      </g>
      <g transform="translate(-561 -1200)">
        <circle id="Ellipse_1-24" data-name="Ellipse 1" cx="4.5" cy="4.5" r="4.5" transform="translate(630 1307)" fill="rgba(237,14,14,0.41)"/>
      </g>
    </g>
    <g id="Repeat_Grid_18" data-name="Repeat Grid 18" transform="translate(22 747)" opacity="0.305" clip-path="url(#clip-path)">
      <g transform="translate(-630 -1295)">
        <circle id="Ellipse_1-25" data-name="Ellipse 1" cx="4.5" cy="4.5" r="4.5" transform="translate(630 1307)" fill="rgba(237,14,14,0.41)"/>
      </g>
      <g transform="translate(-607 -1295)">
        <circle id="Ellipse_1-26" data-name="Ellipse 1" cx="4.5" cy="4.5" r="4.5" transform="translate(630 1307)" fill="rgba(237,14,14,0.41)"/>
      </g>
      <g transform="translate(-584 -1295)">
        <circle id="Ellipse_1-27" data-name="Ellipse 1" cx="4.5" cy="4.5" r="4.5" transform="translate(630 1307)" fill="rgba(237,14,14,0.41)"/>
      </g>
      <g transform="translate(-561 -1295)">
        <circle id="Ellipse_1-28" data-name="Ellipse 1" cx="4.5" cy="4.5" r="4.5" transform="translate(630 1307)" fill="rgba(237,14,14,0.41)"/>
      </g>
      <g transform="translate(-630 -1276)">
        <circle id="Ellipse_1-29" data-name="Ellipse 1" cx="4.5" cy="4.5" r="4.5" transform="translate(630 1307)" fill="rgba(237,14,14,0.41)"/>
      </g>
      <g transform="translate(-607 -1276)">
        <circle id="Ellipse_1-30" data-name="Ellipse 1" cx="4.5" cy="4.5" r="4.5" transform="translate(630 1307)" fill="rgba(237,14,14,0.41)"/>
      </g>
      <g transform="translate(-584 -1276)">
        <circle id="Ellipse_1-31" data-name="Ellipse 1" cx="4.5" cy="4.5" r="4.5" transform="translate(630 1307)" fill="rgba(237,14,14,0.41)"/>
      </g>
      <g transform="translate(-561 -1276)">
        <circle id="Ellipse_1-32" data-name="Ellipse 1" cx="4.5" cy="4.5" r="4.5" transform="translate(630 1307)" fill="rgba(237,14,14,0.41)"/>
      </g>
      <g transform="translate(-630 -1257)">
        <circle id="Ellipse_1-33" data-name="Ellipse 1" cx="4.5" cy="4.5" r="4.5" transform="translate(630 1307)" fill="rgba(237,14,14,0.41)"/>
      </g>
      <g transform="translate(-607 -1257)">
        <circle id="Ellipse_1-34" data-name="Ellipse 1" cx="4.5" cy="4.5" r="4.5" transform="translate(630 1307)" fill="rgba(237,14,14,0.41)"/>
      </g>
      <g transform="translate(-584 -1257)">
        <circle id="Ellipse_1-35" data-name="Ellipse 1" cx="4.5" cy="4.5" r="4.5" transform="translate(630 1307)" fill="rgba(237,14,14,0.41)"/>
      </g>
      <g transform="translate(-561 -1257)">
        <circle id="Ellipse_1-36" data-name="Ellipse 1" cx="4.5" cy="4.5" r="4.5" transform="translate(630 1307)" fill="rgba(237,14,14,0.41)"/>
      </g>
      <g transform="translate(-630 -1238)">
        <circle id="Ellipse_1-37" data-name="Ellipse 1" cx="4.5" cy="4.5" r="4.5" transform="translate(630 1307)" fill="rgba(237,14,14,0.41)"/>
      </g>
      <g transform="translate(-607 -1238)">
        <circle id="Ellipse_1-38" data-name="Ellipse 1" cx="4.5" cy="4.5" r="4.5" transform="translate(630 1307)" fill="rgba(237,14,14,0.41)"/>
      </g>
      <g transform="translate(-584 -1238)">
        <circle id="Ellipse_1-39" data-name="Ellipse 1" cx="4.5" cy="4.5" r="4.5" transform="translate(630 1307)" fill="rgba(237,14,14,0.41)"/>
      </g>
      <g transform="translate(-561 -1238)">
        <circle id="Ellipse_1-40" data-name="Ellipse 1" cx="4.5" cy="4.5" r="4.5" transform="translate(630 1307)" fill="rgba(237,14,14,0.41)"/>
      </g>
      <g transform="translate(-630 -1219)">
        <circle id="Ellipse_1-41" data-name="Ellipse 1" cx="4.5" cy="4.5" r="4.5" transform="translate(630 1307)" fill="rgba(237,14,14,0.41)"/>
      </g>
      <g transform="translate(-607 -1219)">
        <circle id="Ellipse_1-42" data-name="Ellipse 1" cx="4.5" cy="4.5" r="4.5" transform="translate(630 1307)" fill="rgba(237,14,14,0.41)"/>
      </g>
      <g transform="translate(-584 -1219)">
        <circle id="Ellipse_1-43" data-name="Ellipse 1" cx="4.5" cy="4.5" r="4.5" transform="translate(630 1307)" fill="rgba(237,14,14,0.41)"/>
      </g>
      <g transform="translate(-561 -1219)">
        <circle id="Ellipse_1-44" data-name="Ellipse 1" cx="4.5" cy="4.5" r="4.5" transform="translate(630 1307)" fill="rgba(237,14,14,0.41)"/>
      </g>
      <g transform="translate(-630 -1200)">
        <circle id="Ellipse_1-45" data-name="Ellipse 1" cx="4.5" cy="4.5" r="4.5" transform="translate(630 1307)" fill="rgba(237,14,14,0.41)"/>
      </g>
      <g transform="translate(-607 -1200)">
        <circle id="Ellipse_1-46" data-name="Ellipse 1" cx="4.5" cy="4.5" r="4.5" transform="translate(630 1307)" fill="rgba(237,14,14,0.41)"/>
      </g>
      <g transform="translate(-584 -1200)">
        <circle id="Ellipse_1-47" data-name="Ellipse 1" cx="4.5" cy="4.5" r="4.5" transform="translate(630 1307)" fill="rgba(237,14,14,0.41)"/>
      </g>
      <g transform="translate(-561 -1200)">
        <circle id="Ellipse_1-48" data-name="Ellipse 1" cx="4.5" cy="4.5" r="4.5" transform="translate(630 1307)" fill="rgba(237,14,14,0.41)"/>
      </g>
    </g>
    <g id="Group_396" data-name="Group 396" transform="matrix(0.454, 0.891, -0.891, 0.454, 433.246, 880.56)">
      <path id="Path_20" data-name="Path 20" d="M0,0,9.965,100.873l161.309,12.719Z" transform="matrix(-0.326, -0.946, 0.946, -0.326, 55.762, 198.926)" fill="#58478c" opacity="0.163"/>
    </g>
  </g>
</svg>
