<svg xmlns="http://www.w3.org/2000/svg" xmlns:xlink="http://www.w3.org/1999/xlink" width="913" height="717.678" viewBox="0 0 913 717.678">
  <defs>
    <linearGradient id="linear-gradient" x1="1" y1="0.557" x2="0" y2="0.552" gradientUnits="objectBoundingBox">
      <stop offset="0" stop-color="#200080"/>
      <stop offset="1" stop-color="#53004a"/>
    </linearGradient>
    <linearGradient id="linear-gradient-2" x1="0.5" x2="0.5" y2="1" gradientUnits="objectBoundingBox">
      <stop offset="0" stop-color="#ff8e8e"/>
      <stop offset="1" stop-color="#c31d90"/>
    </linearGradient>
    <clipPath id="clip-path">
      <rect width="149" height="116" fill="none"/>
    </clipPath>
    <linearGradient id="linear-gradient-3" x1="0.012" y1="0.432" x2="0.983" y2="0.551" gradientUnits="objectBoundingBox">
      <stop offset="0" stop-color="#360324"/>
      <stop offset="1" stop-color="#0e096f"/>
    </linearGradient>
  </defs>
  <g id="Group_417" data-name="Group 417" transform="translate(79 136.225)">
    <g id="Group_383" data-name="Group 383" transform="translate(0 8.146)">
      <g id="Path_1376" data-name="Path 1376" transform="translate(0 -8.33)" fill="url(#linear-gradient)">
        <path d="M 833.5 581.1375122070312 L 0.5 581.1375122070312 L 0.5 0.4999783337116241 L 833.5 0.4999783337116241 L 833.5 581.1375122070312 Z" stroke="none"/>
        <path d="M 1 1 L 1 580.6375122070312 L 833 580.6375122070312 L 833 1 L 1 1 M 0 0 L 834 0 L 834 581.6375122070312 L 0 581.6375122070312 L 0 0 Z" stroke="none" fill="#707070"/>
      </g>
      <path id="Path_1374" data-name="Path 1374" d="M-552-3041.686v-581.637h396.586Z" transform="translate(552 3607.324)" stroke="#707070" stroke-width="1" opacity="0.091" fill="url(#linear-gradient-2)"/>
      <g id="Group_365" data-name="Group 365" transform="translate(198.498 300.706) rotate(-65)">
        <path id="Path_20" data-name="Path 20" d="M0,0V161.749H206.448Z" transform="matrix(-0.326, -0.946, 0.946, -0.326, 67.213, 247.86)" fill="#58478c" opacity="0.163"/>
      </g>
      <g id="Repeat_Grid_12" data-name="Repeat Grid 12" transform="translate(443 411.854)" opacity="0.305" clip-path="url(#clip-path)">
        <g transform="translate(-630 -1295)">
          <circle id="Ellipse_1" data-name="Ellipse 1" cx="6.5" cy="6.5" r="6.5" transform="translate(630 1310)" fill="rgba(237,14,14,0.41)"/>
        </g>
        <g transform="translate(-597 -1295)">
          <circle id="Ellipse_1-2" data-name="Ellipse 1" cx="6.5" cy="6.5" r="6.5" transform="translate(630 1310)" fill="rgba(237,14,14,0.41)"/>
        </g>
        <g transform="translate(-564 -1295)">
          <circle id="Ellipse_1-3" data-name="Ellipse 1" cx="6.5" cy="6.5" r="6.5" transform="translate(630 1310)" fill="rgba(237,14,14,0.41)"/>
        </g>
        <g transform="translate(-531 -1295)">
          <circle id="Ellipse_1-4" data-name="Ellipse 1" cx="6.5" cy="6.5" r="6.5" transform="translate(630 1310)" fill="rgba(237,14,14,0.41)"/>
        </g>
        <g transform="translate(-498 -1295)">
          <circle id="Ellipse_1-5" data-name="Ellipse 1" cx="6.5" cy="6.5" r="6.5" transform="translate(630 1310)" fill="rgba(237,14,14,0.41)"/>
        </g>
        <g transform="translate(-630 -1268)">
          <circle id="Ellipse_1-6" data-name="Ellipse 1" cx="6.5" cy="6.5" r="6.5" transform="translate(630 1310)" fill="rgba(237,14,14,0.41)"/>
        </g>
        <g transform="translate(-597 -1268)">
          <circle id="Ellipse_1-7" data-name="Ellipse 1" cx="6.5" cy="6.5" r="6.5" transform="translate(630 1310)" fill="rgba(237,14,14,0.41)"/>
        </g>
        <g transform="translate(-564 -1268)">
          <circle id="Ellipse_1-8" data-name="Ellipse 1" cx="6.5" cy="6.5" r="6.5" transform="translate(630 1310)" fill="rgba(237,14,14,0.41)"/>
        </g>
        <g transform="translate(-531 -1268)">
          <circle id="Ellipse_1-9" data-name="Ellipse 1" cx="6.5" cy="6.5" r="6.5" transform="translate(630 1310)" fill="rgba(237,14,14,0.41)"/>
        </g>
        <g transform="translate(-498 -1268)">
          <circle id="Ellipse_1-10" data-name="Ellipse 1" cx="6.5" cy="6.5" r="6.5" transform="translate(630 1310)" fill="rgba(237,14,14,0.41)"/>
        </g>
        <g transform="translate(-630 -1241)">
          <circle id="Ellipse_1-11" data-name="Ellipse 1" cx="6.5" cy="6.5" r="6.5" transform="translate(630 1310)" fill="rgba(237,14,14,0.41)"/>
        </g>
        <g transform="translate(-597 -1241)">
          <circle id="Ellipse_1-12" data-name="Ellipse 1" cx="6.5" cy="6.5" r="6.5" transform="translate(630 1310)" fill="rgba(237,14,14,0.41)"/>
        </g>
        <g transform="translate(-564 -1241)">
          <circle id="Ellipse_1-13" data-name="Ellipse 1" cx="6.5" cy="6.5" r="6.5" transform="translate(630 1310)" fill="rgba(237,14,14,0.41)"/>
        </g>
        <g transform="translate(-531 -1241)">
          <circle id="Ellipse_1-14" data-name="Ellipse 1" cx="6.5" cy="6.5" r="6.5" transform="translate(630 1310)" fill="rgba(237,14,14,0.41)"/>
        </g>
        <g transform="translate(-498 -1241)">
          <circle id="Ellipse_1-15" data-name="Ellipse 1" cx="6.5" cy="6.5" r="6.5" transform="translate(630 1310)" fill="rgba(237,14,14,0.41)"/>
        </g>
        <g transform="translate(-630 -1214)">
          <circle id="Ellipse_1-16" data-name="Ellipse 1" cx="6.5" cy="6.5" r="6.5" transform="translate(630 1310)" fill="rgba(237,14,14,0.41)"/>
        </g>
        <g transform="translate(-597 -1214)">
          <circle id="Ellipse_1-17" data-name="Ellipse 1" cx="6.5" cy="6.5" r="6.5" transform="translate(630 1310)" fill="rgba(237,14,14,0.41)"/>
        </g>
        <g transform="translate(-564 -1214)">
          <circle id="Ellipse_1-18" data-name="Ellipse 1" cx="6.5" cy="6.5" r="6.5" transform="translate(630 1310)" fill="rgba(237,14,14,0.41)"/>
        </g>
        <g transform="translate(-531 -1214)">
          <circle id="Ellipse_1-19" data-name="Ellipse 1" cx="6.5" cy="6.5" r="6.5" transform="translate(630 1310)" fill="rgba(237,14,14,0.41)"/>
        </g>
        <g transform="translate(-498 -1214)">
          <circle id="Ellipse_1-20" data-name="Ellipse 1" cx="6.5" cy="6.5" r="6.5" transform="translate(630 1310)" fill="rgba(237,14,14,0.41)"/>
        </g>
        <g transform="translate(-630 -1187)">
          <circle id="Ellipse_1-21" data-name="Ellipse 1" cx="10" cy="10" r="10" transform="translate(630 1303)" fill="rgba(237,14,14,0.41)"/>
        </g>
        <g transform="translate(-597 -1187)">
          <circle id="Ellipse_1-22" data-name="Ellipse 1" cx="10" cy="10" r="10" transform="translate(630 1303)" fill="rgba(237,14,14,0.41)"/>
        </g>
        <g transform="translate(-564 -1187)">
          <circle id="Ellipse_1-23" data-name="Ellipse 1" cx="10" cy="10" r="10" transform="translate(630 1303)" fill="rgba(237,14,14,0.41)"/>
        </g>
        <g transform="translate(-531 -1187)">
          <circle id="Ellipse_1-24" data-name="Ellipse 1" cx="10" cy="10" r="10" transform="translate(630 1303)" fill="rgba(237,14,14,0.41)"/>
        </g>
        <g transform="translate(-498 -1187)">
          <circle id="Ellipse_1-25" data-name="Ellipse 1" cx="10" cy="10" r="10" transform="translate(630 1303)" fill="rgba(237,14,14,0.41)"/>
        </g>
      </g>
      <g id="Group_366" data-name="Group 366" transform="translate(416.013 -8.59)">
        <g id="Rectangle_690" data-name="Rectangle 690" transform="translate(105.28 9.475) rotate(45)" fill="none" stroke="#ebebeb" stroke-width="10" opacity="0.106">
          <rect width="148.888" height="148.888" rx="19" stroke="none"/>
          <rect x="5" y="5" width="138.888" height="138.888" rx="14" fill="none"/>
        </g>
        <rect id="Rectangle_691" data-name="Rectangle 691" width="148.888" height="148.888" rx="27" transform="translate(150.398) rotate(45)" fill="#fff" opacity="0.185"/>
      </g>
    </g>
    <g id="Group_389" data-name="Group 389" transform="translate(-1581.388 -1481.642)">
      <rect id="Rectangle_685" data-name="Rectangle 685" width="468.01" height="63.163" rx="31.582" transform="translate(1502.388 1703.933) rotate(-50)" opacity="0.485" fill="url(#linear-gradient-3)"/>
      <rect id="Rectangle_686" data-name="Rectangle 686" width="309.801" height="41.507" rx="20.754" transform="translate(1504.572 1619.517) rotate(-50)" opacity="0.485" fill="url(#linear-gradient-3)"/>
      <rect id="Rectangle_687" data-name="Rectangle 687" width="309.801" height="41.507" rx="20.754" transform="translate(1657.367 1638.165) rotate(-50)" opacity="0.485" fill="url(#linear-gradient-3)"/>
    </g>
  </g>
</svg>
