<svg xmlns="http://www.w3.org/2000/svg" xmlns:xlink="http://www.w3.org/1999/xlink" width="2203.345" height="809.576" viewBox="0 0 2203.345 809.576">
  <defs>
    <linearGradient id="linear-gradient" x1="0.5" x2="0.5" y2="1" gradientUnits="objectBoundingBox">
      <stop offset="0" stop-color="#22007d"/>
      <stop offset="1" stop-color="#5d0651"/>
    </linearGradient>
    <linearGradient id="linear-gradient-2" x1="0.012" y1="0.432" x2="0.983" y2="0.551" gradientUnits="objectBoundingBox">
      <stop offset="0" stop-color="#360324"/>
      <stop offset="1" stop-color="#0e096f"/>
    </linearGradient>
    <clipPath id="clip-path">
      <rect width="218" height="179" fill="none"/>
    </clipPath>
    <linearGradient id="linear-gradient-5" x1="0.5" x2="0.5" y2="1" gradientUnits="objectBoundingBox">
      <stop offset="0" stop-color="#fffbed"/>
      <stop offset="1" stop-color="#fff8f8"/>
    </linearGradient>
  </defs>
  <g id="Group_415" data-name="Group 415" transform="translate(283.345 -1316.424)">
    <rect id="Rectangle_86" data-name="Rectangle 86" width="1923" height="735" transform="translate(-3 1391)" fill="url(#linear-gradient)"/>
    <g id="Group_359" data-name="Group 359" transform="translate(-1379 99)">
      <rect id="Rectangle_685" data-name="Rectangle 685" width="778" height="105" rx="52.5" transform="translate(1502.388 1941.399) rotate(-50)" opacity="0.485" fill="url(#linear-gradient-2)"/>
      <rect id="Rectangle_686" data-name="Rectangle 686" width="515" height="69" rx="34.5" transform="translate(1506.019 1801.07) rotate(-50)" opacity="0.485" fill="url(#linear-gradient-2)"/>
      <rect id="Rectangle_687" data-name="Rectangle 687" width="515" height="69" rx="34.5" transform="translate(1760.019 1832.07) rotate(-50)" opacity="0.485" fill="url(#linear-gradient-2)"/>
    </g>
    <g id="Repeat_Grid_1" data-name="Repeat Grid 1" transform="translate(321 1391)" opacity="0.305" clip-path="url(#clip-path)">
      <g transform="translate(-630 -1295)">
        <circle id="Ellipse_1" data-name="Ellipse 1" cx="14" cy="14" r="14" transform="translate(630 1295)" fill="rgba(237,14,14,0.41)"/>
      </g>
      <g transform="translate(-582 -1295)">
        <circle id="Ellipse_1-2" data-name="Ellipse 1" cx="14" cy="14" r="14" transform="translate(630 1295)" fill="rgba(237,14,14,0.41)"/>
      </g>
      <g transform="translate(-534 -1295)">
        <circle id="Ellipse_1-3" data-name="Ellipse 1" cx="14" cy="14" r="14" transform="translate(630 1295)" fill="rgba(237,14,14,0.41)"/>
      </g>
      <g transform="translate(-486 -1295)">
        <circle id="Ellipse_1-4" data-name="Ellipse 1" cx="14" cy="14" r="14" transform="translate(630 1295)" fill="rgba(237,14,14,0.41)"/>
      </g>
      <g transform="translate(-438 -1295)">
        <circle id="Ellipse_1-5" data-name="Ellipse 1" cx="14" cy="14" r="14" transform="translate(630 1295)" fill="rgba(237,14,14,0.41)"/>
      </g>
      <g transform="translate(-630 -1247)">
        <circle id="Ellipse_1-6" data-name="Ellipse 1" cx="14" cy="14" r="14" transform="translate(630 1295)" fill="rgba(237,14,14,0.41)"/>
      </g>
      <g transform="translate(-582 -1247)">
        <circle id="Ellipse_1-7" data-name="Ellipse 1" cx="14" cy="14" r="14" transform="translate(630 1295)" fill="rgba(237,14,14,0.41)"/>
      </g>
      <g transform="translate(-534 -1247)">
        <circle id="Ellipse_1-8" data-name="Ellipse 1" cx="14" cy="14" r="14" transform="translate(630 1295)" fill="rgba(237,14,14,0.41)"/>
      </g>
      <g transform="translate(-486 -1247)">
        <circle id="Ellipse_1-9" data-name="Ellipse 1" cx="14" cy="14" r="14" transform="translate(630 1295)" fill="rgba(237,14,14,0.41)"/>
      </g>
      <g transform="translate(-438 -1247)">
        <circle id="Ellipse_1-10" data-name="Ellipse 1" cx="14" cy="14" r="14" transform="translate(630 1295)" fill="rgba(237,14,14,0.41)"/>
      </g>
      <g transform="translate(-630 -1199)">
        <circle id="Ellipse_1-11" data-name="Ellipse 1" cx="14" cy="14" r="14" transform="translate(630 1295)" fill="rgba(237,14,14,0.41)"/>
      </g>
      <g transform="translate(-582 -1199)">
        <circle id="Ellipse_1-12" data-name="Ellipse 1" cx="14" cy="14" r="14" transform="translate(630 1295)" fill="rgba(237,14,14,0.41)"/>
      </g>
      <g transform="translate(-534 -1199)">
        <circle id="Ellipse_1-13" data-name="Ellipse 1" cx="14" cy="14" r="14" transform="translate(630 1295)" fill="rgba(237,14,14,0.41)"/>
      </g>
      <g transform="translate(-486 -1199)">
        <circle id="Ellipse_1-14" data-name="Ellipse 1" cx="14" cy="14" r="14" transform="translate(630 1295)" fill="rgba(237,14,14,0.41)"/>
      </g>
      <g transform="translate(-438 -1199)">
        <circle id="Ellipse_1-15" data-name="Ellipse 1" cx="14" cy="14" r="14" transform="translate(630 1295)" fill="rgba(237,14,14,0.41)"/>
      </g>
      <g transform="translate(-630 -1151)">
        <circle id="Ellipse_1-16" data-name="Ellipse 1" cx="14" cy="14" r="14" transform="translate(630 1295)" fill="rgba(237,14,14,0.41)"/>
      </g>
      <g transform="translate(-582 -1151)">
        <circle id="Ellipse_1-17" data-name="Ellipse 1" cx="14" cy="14" r="14" transform="translate(630 1295)" fill="rgba(237,14,14,0.41)"/>
      </g>
      <g transform="translate(-534 -1151)">
        <circle id="Ellipse_1-18" data-name="Ellipse 1" cx="14" cy="14" r="14" transform="translate(630 1295)" fill="rgba(237,14,14,0.41)"/>
      </g>
      <g transform="translate(-486 -1151)">
        <circle id="Ellipse_1-19" data-name="Ellipse 1" cx="14" cy="14" r="14" transform="translate(630 1295)" fill="rgba(237,14,14,0.41)"/>
      </g>
      <g transform="translate(-438 -1151)">
        <circle id="Ellipse_1-20" data-name="Ellipse 1" cx="14" cy="14" r="14" transform="translate(630 1295)" fill="rgba(237,14,14,0.41)"/>
      </g>
    </g>
    <g id="Repeat_Grid_13" data-name="Repeat Grid 13" transform="translate(258 1920)" opacity="0.305" clip-path="url(#clip-path)">
      <g transform="translate(-630 -1295)">
        <circle id="Ellipse_1-21" data-name="Ellipse 1" cx="14" cy="14" r="14" transform="translate(630 1295)" fill="rgba(237,14,14,0.41)"/>
      </g>
      <g transform="translate(-582 -1295)">
        <circle id="Ellipse_1-22" data-name="Ellipse 1" cx="14" cy="14" r="14" transform="translate(630 1295)" fill="rgba(237,14,14,0.41)"/>
      </g>
      <g transform="translate(-534 -1295)">
        <circle id="Ellipse_1-23" data-name="Ellipse 1" cx="14" cy="14" r="14" transform="translate(630 1295)" fill="rgba(237,14,14,0.41)"/>
      </g>
      <g transform="translate(-486 -1295)">
        <circle id="Ellipse_1-24" data-name="Ellipse 1" cx="14" cy="14" r="14" transform="translate(630 1295)" fill="rgba(237,14,14,0.41)"/>
      </g>
      <g transform="translate(-438 -1295)">
        <circle id="Ellipse_1-25" data-name="Ellipse 1" cx="14" cy="14" r="14" transform="translate(630 1295)" fill="rgba(237,14,14,0.41)"/>
      </g>
      <g transform="translate(-630 -1247)">
        <circle id="Ellipse_1-26" data-name="Ellipse 1" cx="14" cy="14" r="14" transform="translate(630 1295)" fill="rgba(237,14,14,0.41)"/>
      </g>
      <g transform="translate(-582 -1247)">
        <circle id="Ellipse_1-27" data-name="Ellipse 1" cx="14" cy="14" r="14" transform="translate(630 1295)" fill="rgba(237,14,14,0.41)"/>
      </g>
      <g transform="translate(-534 -1247)">
        <circle id="Ellipse_1-28" data-name="Ellipse 1" cx="14" cy="14" r="14" transform="translate(630 1295)" fill="rgba(237,14,14,0.41)"/>
      </g>
      <g transform="translate(-486 -1247)">
        <circle id="Ellipse_1-29" data-name="Ellipse 1" cx="14" cy="14" r="14" transform="translate(630 1295)" fill="rgba(237,14,14,0.41)"/>
      </g>
      <g transform="translate(-438 -1247)">
        <circle id="Ellipse_1-30" data-name="Ellipse 1" cx="14" cy="14" r="14" transform="translate(630 1295)" fill="rgba(237,14,14,0.41)"/>
      </g>
      <g transform="translate(-630 -1199)">
        <circle id="Ellipse_1-31" data-name="Ellipse 1" cx="14" cy="14" r="14" transform="translate(630 1295)" fill="rgba(237,14,14,0.41)"/>
      </g>
      <g transform="translate(-582 -1199)">
        <circle id="Ellipse_1-32" data-name="Ellipse 1" cx="14" cy="14" r="14" transform="translate(630 1295)" fill="rgba(237,14,14,0.41)"/>
      </g>
      <g transform="translate(-534 -1199)">
        <circle id="Ellipse_1-33" data-name="Ellipse 1" cx="14" cy="14" r="14" transform="translate(630 1295)" fill="rgba(237,14,14,0.41)"/>
      </g>
      <g transform="translate(-486 -1199)">
        <circle id="Ellipse_1-34" data-name="Ellipse 1" cx="14" cy="14" r="14" transform="translate(630 1295)" fill="rgba(237,14,14,0.41)"/>
      </g>
      <g transform="translate(-438 -1199)">
        <circle id="Ellipse_1-35" data-name="Ellipse 1" cx="14" cy="14" r="14" transform="translate(630 1295)" fill="rgba(237,14,14,0.41)"/>
      </g>
      <g transform="translate(-630 -1151)">
        <circle id="Ellipse_1-36" data-name="Ellipse 1" cx="14" cy="14" r="14" transform="translate(630 1295)" fill="rgba(237,14,14,0.41)"/>
      </g>
      <g transform="translate(-582 -1151)">
        <circle id="Ellipse_1-37" data-name="Ellipse 1" cx="14" cy="14" r="14" transform="translate(630 1295)" fill="rgba(237,14,14,0.41)"/>
      </g>
      <g transform="translate(-534 -1151)">
        <circle id="Ellipse_1-38" data-name="Ellipse 1" cx="14" cy="14" r="14" transform="translate(630 1295)" fill="rgba(237,14,14,0.41)"/>
      </g>
      <g transform="translate(-486 -1151)">
        <circle id="Ellipse_1-39" data-name="Ellipse 1" cx="14" cy="14" r="14" transform="translate(630 1295)" fill="rgba(237,14,14,0.41)"/>
      </g>
      <g transform="translate(-438 -1151)">
        <circle id="Ellipse_1-40" data-name="Ellipse 1" cx="14" cy="14" r="14" transform="translate(630 1295)" fill="rgba(237,14,14,0.41)"/>
      </g>
    </g>
    <g id="Group_368" data-name="Group 368" transform="translate(-1344 1316)" opacity="0.412">
      <g id="Rectangle_690" data-name="Rectangle 690" transform="translate(1294 21.424) rotate(45)" fill="none" stroke="#ebebeb" stroke-width="10" opacity="0.106">
        <rect width="330" height="330" rx="66" stroke="none"/>
        <rect x="5" y="5" width="320" height="320" rx="61" fill="none"/>
      </g>
      <rect id="Rectangle_691" data-name="Rectangle 691" width="330" height="330" rx="66" transform="translate(1394 0.424) rotate(45)" fill="#fff" opacity="0.185"/>
    </g>
    <g id="Group_367" data-name="Group 367" transform="translate(303.84 2286.148) rotate(-59)">
      <path id="Path_20" data-name="Path 20" d="M6493,0V358.5h457.576Z" transform="matrix(-0.326, -0.946, 0.946, -0.326, 3226.502, 7205.837)" fill="#58478c" opacity="0.163"/>
    </g>
    <circle id="Ellipse_304" data-name="Ellipse 304" cx="124.5" cy="124.5" r="124.5" transform="translate(1303 1830)" opacity="0.042" fill="url(#linear-gradient-5)"/>
  </g>
</svg>
