<svg xmlns="http://www.w3.org/2000/svg" xmlns:xlink="http://www.w3.org/1999/xlink" width="1923.5" height="1100.5" viewBox="0 0 1923.5 1100.5">
  <defs>
    <linearGradient id="linear-gradient" x1="1" y1="0.557" x2="0" y2="0.552" gradientUnits="objectBoundingBox">
      <stop offset="0" stop-color="#200080"/>
      <stop offset="1" stop-color="#53004a"/>
    </linearGradient>
    <linearGradient id="linear-gradient-2" x1="0.5" x2="0.5" y2="1" gradientUnits="objectBoundingBox">
      <stop offset="0" stop-color="#ff8e8e"/>
      <stop offset="1" stop-color="#c31d90"/>
    </linearGradient>
    <clipPath id="clip-path">
      <rect width="384" height="314" fill="none"/>
    </clipPath>
  </defs>
  <g id="Group_382" data-name="Group 382" transform="translate(0.5 16.5)">
    <g id="Path_1376" data-name="Path 1376" transform="translate(0 1)" fill="url(#linear-gradient)">
      <path d="M 1922.5 1082.5 L 0.5 1082.5 L 0.5 0.5 L 1922.5 0.5 L 1922.5 1082.5 Z" stroke="none"/>
      <path d="M 1 1 L 1 1082 L 1922 1082 L 1922 1 L 1 1 M 0 0 L 1923 0 L 1923 1083 L 0 1083 L 0 0 Z" stroke="none" fill="#707070"/>
    </g>
    <path id="Path_1374" data-name="Path 1374" d="M-552-2540.324v-1083H327Z" transform="translate(552 3607.324)" stroke="#707070" stroke-width="1" opacity="0.091" fill="url(#linear-gradient-2)"/>
    <g id="Group_365" data-name="Group 365" transform="translate(-355.469 1094.677) rotate(-65)">
      <path id="Path_20" data-name="Path 20" d="M6493,0V358.5h457.576Z" transform="matrix(-0.326, -0.946, 0.946, -0.326, 3226.502, 7205.837)" fill="#58478c" opacity="0.163"/>
    </g>
    <g id="Repeat_Grid_12" data-name="Repeat Grid 12" transform="translate(1031 726)" opacity="0.305" clip-path="url(#clip-path)">
      <g transform="translate(-630 -1295)">
        <circle id="Ellipse_1" data-name="Ellipse 1" cx="23" cy="23" r="23" transform="translate(630 1277)" fill="rgba(237,14,14,0.41)"/>
      </g>
      <g transform="translate(-546 -1295)">
        <circle id="Ellipse_1-2" data-name="Ellipse 1" cx="23" cy="23" r="23" transform="translate(630 1277)" fill="rgba(237,14,14,0.41)"/>
      </g>
      <g transform="translate(-462 -1295)">
        <circle id="Ellipse_1-3" data-name="Ellipse 1" cx="23" cy="23" r="23" transform="translate(630 1277)" fill="rgba(237,14,14,0.41)"/>
      </g>
      <g transform="translate(-378 -1295)">
        <circle id="Ellipse_1-4" data-name="Ellipse 1" cx="23" cy="23" r="23" transform="translate(630 1277)" fill="rgba(237,14,14,0.41)"/>
      </g>
      <g transform="translate(-294 -1295)">
        <circle id="Ellipse_1-5" data-name="Ellipse 1" cx="23" cy="23" r="23" transform="translate(630 1277)" fill="rgba(237,14,14,0.41)"/>
      </g>
      <g transform="translate(-630 -1228)">
        <circle id="Ellipse_1-6" data-name="Ellipse 1" cx="23" cy="23" r="23" transform="translate(630 1277)" fill="rgba(237,14,14,0.41)"/>
      </g>
      <g transform="translate(-546 -1228)">
        <circle id="Ellipse_1-7" data-name="Ellipse 1" cx="23" cy="23" r="23" transform="translate(630 1277)" fill="rgba(237,14,14,0.41)"/>
      </g>
      <g transform="translate(-462 -1228)">
        <circle id="Ellipse_1-8" data-name="Ellipse 1" cx="23" cy="23" r="23" transform="translate(630 1277)" fill="rgba(237,14,14,0.41)"/>
      </g>
      <g transform="translate(-378 -1228)">
        <circle id="Ellipse_1-9" data-name="Ellipse 1" cx="23" cy="23" r="23" transform="translate(630 1277)" fill="rgba(237,14,14,0.41)"/>
      </g>
      <g transform="translate(-294 -1228)">
        <circle id="Ellipse_1-10" data-name="Ellipse 1" cx="23" cy="23" r="23" transform="translate(630 1277)" fill="rgba(237,14,14,0.41)"/>
      </g>
      <g transform="translate(-630 -1161)">
        <circle id="Ellipse_1-11" data-name="Ellipse 1" cx="23" cy="23" r="23" transform="translate(630 1277)" fill="rgba(237,14,14,0.41)"/>
      </g>
      <g transform="translate(-546 -1161)">
        <circle id="Ellipse_1-12" data-name="Ellipse 1" cx="23" cy="23" r="23" transform="translate(630 1277)" fill="rgba(237,14,14,0.41)"/>
      </g>
      <g transform="translate(-462 -1161)">
        <circle id="Ellipse_1-13" data-name="Ellipse 1" cx="23" cy="23" r="23" transform="translate(630 1277)" fill="rgba(237,14,14,0.41)"/>
      </g>
      <g transform="translate(-378 -1161)">
        <circle id="Ellipse_1-14" data-name="Ellipse 1" cx="23" cy="23" r="23" transform="translate(630 1277)" fill="rgba(237,14,14,0.41)"/>
      </g>
      <g transform="translate(-294 -1161)">
        <circle id="Ellipse_1-15" data-name="Ellipse 1" cx="23" cy="23" r="23" transform="translate(630 1277)" fill="rgba(237,14,14,0.41)"/>
      </g>
      <g transform="translate(-630 -1094)">
        <circle id="Ellipse_1-16" data-name="Ellipse 1" cx="23" cy="23" r="23" transform="translate(630 1277)" fill="rgba(237,14,14,0.41)"/>
      </g>
      <g transform="translate(-546 -1094)">
        <circle id="Ellipse_1-17" data-name="Ellipse 1" cx="23" cy="23" r="23" transform="translate(630 1277)" fill="rgba(237,14,14,0.41)"/>
      </g>
      <g transform="translate(-462 -1094)">
        <circle id="Ellipse_1-18" data-name="Ellipse 1" cx="23" cy="23" r="23" transform="translate(630 1277)" fill="rgba(237,14,14,0.41)"/>
      </g>
      <g transform="translate(-378 -1094)">
        <circle id="Ellipse_1-19" data-name="Ellipse 1" cx="23" cy="23" r="23" transform="translate(630 1277)" fill="rgba(237,14,14,0.41)"/>
      </g>
      <g transform="translate(-294 -1094)">
        <circle id="Ellipse_1-20" data-name="Ellipse 1" cx="23" cy="23" r="23" transform="translate(630 1277)" fill="rgba(237,14,14,0.41)"/>
      </g>
      <g transform="translate(-630 -1027)">
        <circle id="Ellipse_1-21" data-name="Ellipse 1" cx="23" cy="23" r="23" transform="translate(630 1277)" fill="rgba(237,14,14,0.41)"/>
      </g>
      <g transform="translate(-546 -1027)">
        <circle id="Ellipse_1-22" data-name="Ellipse 1" cx="23" cy="23" r="23" transform="translate(630 1277)" fill="rgba(237,14,14,0.41)"/>
      </g>
      <g transform="translate(-462 -1027)">
        <circle id="Ellipse_1-23" data-name="Ellipse 1" cx="23" cy="23" r="23" transform="translate(630 1277)" fill="rgba(237,14,14,0.41)"/>
      </g>
      <g transform="translate(-378 -1027)">
        <circle id="Ellipse_1-24" data-name="Ellipse 1" cx="23" cy="23" r="23" transform="translate(630 1277)" fill="rgba(237,14,14,0.41)"/>
      </g>
      <g transform="translate(-294 -1027)">
        <circle id="Ellipse_1-25" data-name="Ellipse 1" cx="23" cy="23" r="23" transform="translate(630 1277)" fill="rgba(237,14,14,0.41)"/>
      </g>
    </g>
    <g id="Group_366" data-name="Group 366" transform="translate(-85)">
      <g id="Rectangle_690" data-name="Rectangle 690" transform="translate(1294 21.424) rotate(45)" fill="none" stroke="#ebebeb" stroke-width="10" opacity="0.106">
        <rect width="330" height="330" rx="66" stroke="none"/>
        <rect x="5" y="5" width="320" height="320" rx="61" fill="none"/>
      </g>
      <rect id="Rectangle_691" data-name="Rectangle 691" width="330" height="330" rx="66" transform="translate(1394 0.424) rotate(45)" fill="#fff" opacity="0.185"/>
    </g>
  </g>
</svg>
