<svg xmlns="http://www.w3.org/2000/svg" xmlns:xlink="http://www.w3.org/1999/xlink" width="511.829" height="387.774" viewBox="0 0 511.829 387.774">
  <defs>
    <linearGradient id="linear-gradient" x1="0.5" x2="0.5" y2="1" gradientUnits="objectBoundingBox">
      <stop offset="0" stop-color="#22007d"/>
      <stop offset="1" stop-color="#5d0651"/>
    </linearGradient>
    <linearGradient id="linear-gradient-2" x1="0.012" y1="0.432" x2="0.983" y2="0.551" gradientUnits="objectBoundingBox">
      <stop offset="0" stop-color="#360324"/>
      <stop offset="1" stop-color="#0e096f"/>
    </linearGradient>
    <clipPath id="clip-path">
      <rect width="87" height="99" fill="none"/>
    </clipPath>
  </defs>
  <g id="Group_420" data-name="Group 420" transform="translate(66.51 -1237.226)">
    <g id="Group_403" data-name="Group 403" transform="translate(-1644 2224)">
      <rect id="Rectangle_715" data-name="Rectangle 715" width="473" height="383" transform="translate(1598 -982)" fill="url(#linear-gradient)"/>
      <g id="Group_392" data-name="Group 392" transform="translate(1577.49 -986.774)">
        <rect id="Rectangle_685" data-name="Rectangle 685" width="248.535" height="33.543" rx="16.771" transform="translate(0 190.389) rotate(-50)" opacity="0.485" fill="url(#linear-gradient-2)"/>
        <rect id="Rectangle_686" data-name="Rectangle 686" width="164.519" height="22.042" rx="11.021" transform="translate(1.16 145.56) rotate(-50)" opacity="0.485" fill="url(#linear-gradient-2)"/>
        <rect id="Rectangle_687" data-name="Rectangle 687" width="164.519" height="22.042" rx="11.021" transform="translate(82.301 155.463) rotate(-50)" opacity="0.485" fill="url(#linear-gradient-2)"/>
      </g>
      <g id="Repeat_Grid_17" data-name="Repeat Grid 17" transform="translate(1859 -712)" opacity="0.305" clip-path="url(#clip-path)">
        <g transform="translate(-630 -1295)">
          <circle id="Ellipse_1" data-name="Ellipse 1" cx="4.5" cy="4.5" r="4.5" transform="translate(630 1307)" fill="rgba(237,14,14,0.41)"/>
        </g>
        <g transform="translate(-607 -1295)">
          <circle id="Ellipse_1-2" data-name="Ellipse 1" cx="4.5" cy="4.5" r="4.5" transform="translate(630 1307)" fill="rgba(237,14,14,0.41)"/>
        </g>
        <g transform="translate(-584 -1295)">
          <circle id="Ellipse_1-3" data-name="Ellipse 1" cx="4.5" cy="4.5" r="4.5" transform="translate(630 1307)" fill="rgba(237,14,14,0.41)"/>
        </g>
        <g transform="translate(-561 -1295)">
          <circle id="Ellipse_1-4" data-name="Ellipse 1" cx="4.5" cy="4.5" r="4.5" transform="translate(630 1307)" fill="rgba(237,14,14,0.41)"/>
        </g>
        <g transform="translate(-630 -1276)">
          <circle id="Ellipse_1-5" data-name="Ellipse 1" cx="4.5" cy="4.5" r="4.5" transform="translate(630 1307)" fill="rgba(237,14,14,0.41)"/>
        </g>
        <g transform="translate(-607 -1276)">
          <circle id="Ellipse_1-6" data-name="Ellipse 1" cx="4.5" cy="4.5" r="4.5" transform="translate(630 1307)" fill="rgba(237,14,14,0.41)"/>
        </g>
        <g transform="translate(-584 -1276)">
          <circle id="Ellipse_1-7" data-name="Ellipse 1" cx="4.5" cy="4.5" r="4.5" transform="translate(630 1307)" fill="rgba(237,14,14,0.41)"/>
        </g>
        <g transform="translate(-561 -1276)">
          <circle id="Ellipse_1-8" data-name="Ellipse 1" cx="4.5" cy="4.5" r="4.5" transform="translate(630 1307)" fill="rgba(237,14,14,0.41)"/>
        </g>
        <g transform="translate(-630 -1257)">
          <circle id="Ellipse_1-9" data-name="Ellipse 1" cx="4.5" cy="4.5" r="4.5" transform="translate(630 1307)" fill="rgba(237,14,14,0.41)"/>
        </g>
        <g transform="translate(-607 -1257)">
          <circle id="Ellipse_1-10" data-name="Ellipse 1" cx="4.5" cy="4.5" r="4.5" transform="translate(630 1307)" fill="rgba(237,14,14,0.41)"/>
        </g>
        <g transform="translate(-584 -1257)">
          <circle id="Ellipse_1-11" data-name="Ellipse 1" cx="4.5" cy="4.5" r="4.5" transform="translate(630 1307)" fill="rgba(237,14,14,0.41)"/>
        </g>
        <g transform="translate(-561 -1257)">
          <circle id="Ellipse_1-12" data-name="Ellipse 1" cx="4.5" cy="4.5" r="4.5" transform="translate(630 1307)" fill="rgba(237,14,14,0.41)"/>
        </g>
        <g transform="translate(-630 -1238)">
          <circle id="Ellipse_1-13" data-name="Ellipse 1" cx="4.5" cy="4.5" r="4.5" transform="translate(630 1307)" fill="rgba(237,14,14,0.41)"/>
        </g>
        <g transform="translate(-607 -1238)">
          <circle id="Ellipse_1-14" data-name="Ellipse 1" cx="4.5" cy="4.5" r="4.5" transform="translate(630 1307)" fill="rgba(237,14,14,0.41)"/>
        </g>
        <g transform="translate(-584 -1238)">
          <circle id="Ellipse_1-15" data-name="Ellipse 1" cx="4.5" cy="4.5" r="4.5" transform="translate(630 1307)" fill="rgba(237,14,14,0.41)"/>
        </g>
        <g transform="translate(-561 -1238)">
          <circle id="Ellipse_1-16" data-name="Ellipse 1" cx="4.5" cy="4.5" r="4.5" transform="translate(630 1307)" fill="rgba(237,14,14,0.41)"/>
        </g>
        <g transform="translate(-630 -1219)">
          <circle id="Ellipse_1-17" data-name="Ellipse 1" cx="4.5" cy="4.5" r="4.5" transform="translate(630 1307)" fill="rgba(237,14,14,0.41)"/>
        </g>
        <g transform="translate(-607 -1219)">
          <circle id="Ellipse_1-18" data-name="Ellipse 1" cx="4.5" cy="4.5" r="4.5" transform="translate(630 1307)" fill="rgba(237,14,14,0.41)"/>
        </g>
        <g transform="translate(-584 -1219)">
          <circle id="Ellipse_1-19" data-name="Ellipse 1" cx="4.5" cy="4.5" r="4.5" transform="translate(630 1307)" fill="rgba(237,14,14,0.41)"/>
        </g>
        <g transform="translate(-561 -1219)">
          <circle id="Ellipse_1-20" data-name="Ellipse 1" cx="4.5" cy="4.5" r="4.5" transform="translate(630 1307)" fill="rgba(237,14,14,0.41)"/>
        </g>
        <g transform="translate(-630 -1200)">
          <circle id="Ellipse_1-21" data-name="Ellipse 1" cx="4.5" cy="4.5" r="4.5" transform="translate(630 1307)" fill="rgba(237,14,14,0.41)"/>
        </g>
        <g transform="translate(-607 -1200)">
          <circle id="Ellipse_1-22" data-name="Ellipse 1" cx="4.5" cy="4.5" r="4.5" transform="translate(630 1307)" fill="rgba(237,14,14,0.41)"/>
        </g>
        <g transform="translate(-584 -1200)">
          <circle id="Ellipse_1-23" data-name="Ellipse 1" cx="4.5" cy="4.5" r="4.5" transform="translate(630 1307)" fill="rgba(237,14,14,0.41)"/>
        </g>
        <g transform="translate(-561 -1200)">
          <circle id="Ellipse_1-24" data-name="Ellipse 1" cx="4.5" cy="4.5" r="4.5" transform="translate(630 1307)" fill="rgba(237,14,14,0.41)"/>
        </g>
      </g>
      <g id="Repeat_Grid_18" data-name="Repeat Grid 18" transform="translate(1669 -954)" opacity="0.305" clip-path="url(#clip-path)">
        <g transform="translate(-630 -1295)">
          <circle id="Ellipse_1-25" data-name="Ellipse 1" cx="4.5" cy="4.5" r="4.5" transform="translate(630 1307)" fill="rgba(237,14,14,0.41)"/>
        </g>
        <g transform="translate(-607 -1295)">
          <circle id="Ellipse_1-26" data-name="Ellipse 1" cx="4.5" cy="4.5" r="4.5" transform="translate(630 1307)" fill="rgba(237,14,14,0.41)"/>
        </g>
        <g transform="translate(-584 -1295)">
          <circle id="Ellipse_1-27" data-name="Ellipse 1" cx="4.5" cy="4.5" r="4.5" transform="translate(630 1307)" fill="rgba(237,14,14,0.41)"/>
        </g>
        <g transform="translate(-561 -1295)">
          <circle id="Ellipse_1-28" data-name="Ellipse 1" cx="4.5" cy="4.5" r="4.5" transform="translate(630 1307)" fill="rgba(237,14,14,0.41)"/>
        </g>
        <g transform="translate(-630 -1276)">
          <circle id="Ellipse_1-29" data-name="Ellipse 1" cx="4.5" cy="4.5" r="4.5" transform="translate(630 1307)" fill="rgba(237,14,14,0.41)"/>
        </g>
        <g transform="translate(-607 -1276)">
          <circle id="Ellipse_1-30" data-name="Ellipse 1" cx="4.5" cy="4.5" r="4.5" transform="translate(630 1307)" fill="rgba(237,14,14,0.41)"/>
        </g>
        <g transform="translate(-584 -1276)">
          <circle id="Ellipse_1-31" data-name="Ellipse 1" cx="4.5" cy="4.5" r="4.5" transform="translate(630 1307)" fill="rgba(237,14,14,0.41)"/>
        </g>
        <g transform="translate(-561 -1276)">
          <circle id="Ellipse_1-32" data-name="Ellipse 1" cx="4.5" cy="4.5" r="4.5" transform="translate(630 1307)" fill="rgba(237,14,14,0.41)"/>
        </g>
        <g transform="translate(-630 -1257)">
          <circle id="Ellipse_1-33" data-name="Ellipse 1" cx="4.5" cy="4.5" r="4.5" transform="translate(630 1307)" fill="rgba(237,14,14,0.41)"/>
        </g>
        <g transform="translate(-607 -1257)">
          <circle id="Ellipse_1-34" data-name="Ellipse 1" cx="4.5" cy="4.5" r="4.5" transform="translate(630 1307)" fill="rgba(237,14,14,0.41)"/>
        </g>
        <g transform="translate(-584 -1257)">
          <circle id="Ellipse_1-35" data-name="Ellipse 1" cx="4.5" cy="4.5" r="4.5" transform="translate(630 1307)" fill="rgba(237,14,14,0.41)"/>
        </g>
        <g transform="translate(-561 -1257)">
          <circle id="Ellipse_1-36" data-name="Ellipse 1" cx="4.5" cy="4.5" r="4.5" transform="translate(630 1307)" fill="rgba(237,14,14,0.41)"/>
        </g>
        <g transform="translate(-630 -1238)">
          <circle id="Ellipse_1-37" data-name="Ellipse 1" cx="4.5" cy="4.5" r="4.5" transform="translate(630 1307)" fill="rgba(237,14,14,0.41)"/>
        </g>
        <g transform="translate(-607 -1238)">
          <circle id="Ellipse_1-38" data-name="Ellipse 1" cx="4.5" cy="4.5" r="4.5" transform="translate(630 1307)" fill="rgba(237,14,14,0.41)"/>
        </g>
        <g transform="translate(-584 -1238)">
          <circle id="Ellipse_1-39" data-name="Ellipse 1" cx="4.5" cy="4.5" r="4.5" transform="translate(630 1307)" fill="rgba(237,14,14,0.41)"/>
        </g>
        <g transform="translate(-561 -1238)">
          <circle id="Ellipse_1-40" data-name="Ellipse 1" cx="4.5" cy="4.5" r="4.5" transform="translate(630 1307)" fill="rgba(237,14,14,0.41)"/>
        </g>
        <g transform="translate(-630 -1219)">
          <circle id="Ellipse_1-41" data-name="Ellipse 1" cx="4.5" cy="4.5" r="4.5" transform="translate(630 1307)" fill="rgba(237,14,14,0.41)"/>
        </g>
        <g transform="translate(-607 -1219)">
          <circle id="Ellipse_1-42" data-name="Ellipse 1" cx="4.5" cy="4.5" r="4.5" transform="translate(630 1307)" fill="rgba(237,14,14,0.41)"/>
        </g>
        <g transform="translate(-584 -1219)">
          <circle id="Ellipse_1-43" data-name="Ellipse 1" cx="4.5" cy="4.5" r="4.5" transform="translate(630 1307)" fill="rgba(237,14,14,0.41)"/>
        </g>
        <g transform="translate(-561 -1219)">
          <circle id="Ellipse_1-44" data-name="Ellipse 1" cx="4.5" cy="4.5" r="4.5" transform="translate(630 1307)" fill="rgba(237,14,14,0.41)"/>
        </g>
        <g transform="translate(-630 -1200)">
          <circle id="Ellipse_1-45" data-name="Ellipse 1" cx="4.5" cy="4.5" r="4.5" transform="translate(630 1307)" fill="rgba(237,14,14,0.41)"/>
        </g>
        <g transform="translate(-607 -1200)">
          <circle id="Ellipse_1-46" data-name="Ellipse 1" cx="4.5" cy="4.5" r="4.5" transform="translate(630 1307)" fill="rgba(237,14,14,0.41)"/>
        </g>
        <g transform="translate(-584 -1200)">
          <circle id="Ellipse_1-47" data-name="Ellipse 1" cx="4.5" cy="4.5" r="4.5" transform="translate(630 1307)" fill="rgba(237,14,14,0.41)"/>
        </g>
        <g transform="translate(-561 -1200)">
          <circle id="Ellipse_1-48" data-name="Ellipse 1" cx="4.5" cy="4.5" r="4.5" transform="translate(630 1307)" fill="rgba(237,14,14,0.41)"/>
        </g>
      </g>
      <g id="Group_396" data-name="Group 396" transform="matrix(0.454, 0.891, -0.891, 0.454, 2040.558, -849.116)">
        <path id="Path_20" data-name="Path 20" d="M0,0,9.965,100.873l161.309,12.719Z" transform="matrix(-0.326, -0.946, 0.946, -0.326, 55.762, 198.926)" fill="#58478c" opacity="0.163"/>
      </g>
    </g>
  </g>
</svg>
