<svg xmlns="http://www.w3.org/2000/svg" xmlns:xlink="http://www.w3.org/1999/xlink" width="415.447" height="1113.527" viewBox="0 0 415.447 1113.527">
  <defs>
    <linearGradient id="linear-gradient" x1="1" y1="0.557" x2="0" y2="0.552" gradientUnits="objectBoundingBox">
      <stop offset="0" stop-color="#200080"/>
      <stop offset="1" stop-color="#53004a"/>
    </linearGradient>
    <linearGradient id="linear-gradient-2" x1="0.5" x2="0.5" y2="1" gradientUnits="objectBoundingBox">
      <stop offset="0" stop-color="#ff8e8e"/>
      <stop offset="1" stop-color="#c31d90"/>
    </linearGradient>
    <clipPath id="clip-path">
      <rect width="196" height="153" fill="none"/>
    </clipPath>
  </defs>
  <g id="Group_419" data-name="Group 419" transform="translate(0.5 10.354)">
    <g id="Group_399" data-name="Group 399" transform="translate(0 6.146)">
      <g id="Path_1376" data-name="Path 1376" transform="translate(0 -5.935)" fill="url(#linear-gradient)">
        <path d="M 414.4471130371094 1102.462036132812 L 0.5000593066215515 1102.462036132812 L 0.5000593066215515 0.4999513924121857 L 414.4471130371094 0.4999513924121857 L 414.4471130371094 1102.462036132812 Z" stroke="none"/>
        <path d="M 0.999969482421875 1 L 0.999969482421875 1101.962036132812 L 413.9470825195312 1101.962036132812 L 413.9470825195312 1 L 0.999969482421875 1 M -3.0517578125e-05 0 L 414.9470825195312 0 L 414.9470825195312 1102.962036132812 L -3.0517578125e-05 1102.962036132812 L -3.0517578125e-05 0 Z" stroke="none" fill="#707070"/>
      </g>
      <path id="Path_1374" data-name="Path 1374" d="M-552-2520.362V-3623.324h408.355Z" transform="translate(552 3607.324)" stroke="#707070" stroke-width="1" opacity="0.091" fill="url(#linear-gradient-2)"/>
      <g id="Group_365" data-name="Group 365" transform="translate(56.663 706.45) rotate(-65)">
        <path id="Path_20" data-name="Path 20" d="M0,0,.042,211.469l268.463.054Z" transform="matrix(-0.326, -0.946, 0.946, -0.326, 87.417, 322.742)" fill="#58478c" opacity="0.163"/>
      </g>
      <g id="Repeat_Grid_12" data-name="Repeat Grid 12" transform="translate(152 884.854)" opacity="0.305" clip-path="url(#clip-path)">
        <g transform="translate(-630 -1295)">
          <circle id="Ellipse_1" data-name="Ellipse 1" cx="6.5" cy="6.5" r="6.5" transform="translate(630 1310)" fill="rgba(237,14,14,0.41)"/>
        </g>
        <g transform="translate(-597 -1295)">
          <circle id="Ellipse_1-2" data-name="Ellipse 1" cx="6.5" cy="6.5" r="6.5" transform="translate(630 1310)" fill="rgba(237,14,14,0.41)"/>
        </g>
        <g transform="translate(-564 -1295)">
          <circle id="Ellipse_1-3" data-name="Ellipse 1" cx="6.5" cy="6.5" r="6.5" transform="translate(630 1310)" fill="rgba(237,14,14,0.41)"/>
        </g>
        <g transform="translate(-531 -1295)">
          <circle id="Ellipse_1-4" data-name="Ellipse 1" cx="6.5" cy="6.5" r="6.5" transform="translate(630 1310)" fill="rgba(237,14,14,0.41)"/>
        </g>
        <g transform="translate(-498 -1295)">
          <circle id="Ellipse_1-5" data-name="Ellipse 1" cx="6.5" cy="6.5" r="6.5" transform="translate(630 1310)" fill="rgba(237,14,14,0.41)"/>
        </g>
        <g transform="translate(-465 -1295)">
          <circle id="Ellipse_1-6" data-name="Ellipse 1" cx="6.5" cy="6.5" r="6.5" transform="translate(630 1310)" fill="rgba(237,14,14,0.41)"/>
        </g>
        <g transform="translate(-630 -1268)">
          <circle id="Ellipse_1-7" data-name="Ellipse 1" cx="6.5" cy="6.5" r="6.5" transform="translate(630 1310)" fill="rgba(237,14,14,0.41)"/>
        </g>
        <g transform="translate(-597 -1268)">
          <circle id="Ellipse_1-8" data-name="Ellipse 1" cx="6.5" cy="6.5" r="6.5" transform="translate(630 1310)" fill="rgba(237,14,14,0.41)"/>
        </g>
        <g transform="translate(-564 -1268)">
          <circle id="Ellipse_1-9" data-name="Ellipse 1" cx="6.5" cy="6.5" r="6.5" transform="translate(630 1310)" fill="rgba(237,14,14,0.41)"/>
        </g>
        <g transform="translate(-531 -1268)">
          <circle id="Ellipse_1-10" data-name="Ellipse 1" cx="6.5" cy="6.5" r="6.5" transform="translate(630 1310)" fill="rgba(237,14,14,0.41)"/>
        </g>
        <g transform="translate(-498 -1268)">
          <circle id="Ellipse_1-11" data-name="Ellipse 1" cx="6.5" cy="6.5" r="6.5" transform="translate(630 1310)" fill="rgba(237,14,14,0.41)"/>
        </g>
        <g transform="translate(-465 -1268)">
          <circle id="Ellipse_1-12" data-name="Ellipse 1" cx="6.5" cy="6.5" r="6.5" transform="translate(630 1310)" fill="rgba(237,14,14,0.41)"/>
        </g>
        <g transform="translate(-630 -1241)">
          <circle id="Ellipse_1-13" data-name="Ellipse 1" cx="6.5" cy="6.5" r="6.5" transform="translate(630 1310)" fill="rgba(237,14,14,0.41)"/>
        </g>
        <g transform="translate(-597 -1241)">
          <circle id="Ellipse_1-14" data-name="Ellipse 1" cx="6.5" cy="6.5" r="6.5" transform="translate(630 1310)" fill="rgba(237,14,14,0.41)"/>
        </g>
        <g transform="translate(-564 -1241)">
          <circle id="Ellipse_1-15" data-name="Ellipse 1" cx="6.5" cy="6.5" r="6.5" transform="translate(630 1310)" fill="rgba(237,14,14,0.41)"/>
        </g>
        <g transform="translate(-531 -1241)">
          <circle id="Ellipse_1-16" data-name="Ellipse 1" cx="6.5" cy="6.5" r="6.5" transform="translate(630 1310)" fill="rgba(237,14,14,0.41)"/>
        </g>
        <g transform="translate(-498 -1241)">
          <circle id="Ellipse_1-17" data-name="Ellipse 1" cx="6.5" cy="6.5" r="6.5" transform="translate(630 1310)" fill="rgba(237,14,14,0.41)"/>
        </g>
        <g transform="translate(-465 -1241)">
          <circle id="Ellipse_1-18" data-name="Ellipse 1" cx="6.5" cy="6.5" r="6.5" transform="translate(630 1310)" fill="rgba(237,14,14,0.41)"/>
        </g>
        <g transform="translate(-630 -1214)">
          <circle id="Ellipse_1-19" data-name="Ellipse 1" cx="6.5" cy="6.5" r="6.5" transform="translate(630 1310)" fill="rgba(237,14,14,0.41)"/>
        </g>
        <g transform="translate(-597 -1214)">
          <circle id="Ellipse_1-20" data-name="Ellipse 1" cx="6.5" cy="6.5" r="6.5" transform="translate(630 1310)" fill="rgba(237,14,14,0.41)"/>
        </g>
        <g transform="translate(-564 -1214)">
          <circle id="Ellipse_1-21" data-name="Ellipse 1" cx="6.5" cy="6.5" r="6.5" transform="translate(630 1310)" fill="rgba(237,14,14,0.41)"/>
        </g>
        <g transform="translate(-531 -1214)">
          <circle id="Ellipse_1-22" data-name="Ellipse 1" cx="6.5" cy="6.5" r="6.5" transform="translate(630 1310)" fill="rgba(237,14,14,0.41)"/>
        </g>
        <g transform="translate(-498 -1214)">
          <circle id="Ellipse_1-23" data-name="Ellipse 1" cx="6.5" cy="6.5" r="6.5" transform="translate(630 1310)" fill="rgba(237,14,14,0.41)"/>
        </g>
        <g transform="translate(-465 -1214)">
          <circle id="Ellipse_1-24" data-name="Ellipse 1" cx="6.5" cy="6.5" r="6.5" transform="translate(630 1310)" fill="rgba(237,14,14,0.41)"/>
        </g>
        <g transform="translate(-630 -1187)">
          <circle id="Ellipse_1-25" data-name="Ellipse 1" cx="10" cy="10" r="10" transform="translate(630 1303)" fill="rgba(237,14,14,0.41)"/>
        </g>
        <g transform="translate(-597 -1187)">
          <circle id="Ellipse_1-26" data-name="Ellipse 1" cx="10" cy="10" r="10" transform="translate(630 1303)" fill="rgba(237,14,14,0.41)"/>
        </g>
        <g transform="translate(-564 -1187)">
          <circle id="Ellipse_1-27" data-name="Ellipse 1" cx="10" cy="10" r="10" transform="translate(630 1303)" fill="rgba(237,14,14,0.41)"/>
        </g>
        <g transform="translate(-531 -1187)">
          <circle id="Ellipse_1-28" data-name="Ellipse 1" cx="10" cy="10" r="10" transform="translate(630 1303)" fill="rgba(237,14,14,0.41)"/>
        </g>
        <g transform="translate(-498 -1187)">
          <circle id="Ellipse_1-29" data-name="Ellipse 1" cx="10" cy="10" r="10" transform="translate(630 1303)" fill="rgba(237,14,14,0.41)"/>
        </g>
        <g transform="translate(-465 -1187)">
          <circle id="Ellipse_1-30" data-name="Ellipse 1" cx="10" cy="10" r="10" transform="translate(630 1303)" fill="rgba(237,14,14,0.41)"/>
        </g>
        <g transform="translate(-630 -1160)">
          <circle id="Ellipse_1-31" data-name="Ellipse 1" cx="10" cy="10" r="10" transform="translate(630 1303)" fill="rgba(237,14,14,0.41)"/>
        </g>
        <g transform="translate(-597 -1160)">
          <circle id="Ellipse_1-32" data-name="Ellipse 1" cx="10" cy="10" r="10" transform="translate(630 1303)" fill="rgba(237,14,14,0.41)"/>
        </g>
        <g transform="translate(-564 -1160)">
          <circle id="Ellipse_1-33" data-name="Ellipse 1" cx="10" cy="10" r="10" transform="translate(630 1303)" fill="rgba(237,14,14,0.41)"/>
        </g>
        <g transform="translate(-531 -1160)">
          <circle id="Ellipse_1-34" data-name="Ellipse 1" cx="10" cy="10" r="10" transform="translate(630 1303)" fill="rgba(237,14,14,0.41)"/>
        </g>
        <g transform="translate(-498 -1160)">
          <circle id="Ellipse_1-35" data-name="Ellipse 1" cx="10" cy="10" r="10" transform="translate(630 1303)" fill="rgba(237,14,14,0.41)"/>
        </g>
        <g transform="translate(-465 -1160)">
          <circle id="Ellipse_1-36" data-name="Ellipse 1" cx="10" cy="10" r="10" transform="translate(630 1303)" fill="rgba(237,14,14,0.41)"/>
        </g>
      </g>
      <g id="Group_366" data-name="Group 366" transform="translate(74.778 -6.276)">
        <g id="Rectangle_690" data-name="Rectangle 690" transform="translate(138.15 12.433) rotate(45)" fill="none" stroke="#ebebeb" stroke-width="10" opacity="0.106">
          <rect width="195.374" height="195.374" rx="19" stroke="none"/>
          <rect x="5" y="5" width="185.374" height="185.374" rx="14" fill="none"/>
        </g>
        <rect id="Rectangle_691" data-name="Rectangle 691" width="195.374" height="195.374" rx="27" transform="translate(197.354) rotate(45)" fill="#fff" opacity="0.185"/>
      </g>
    </g>
  </g>
</svg>
