<svg xmlns="http://www.w3.org/2000/svg" width="71.718" height="60.485" viewBox="0 0 71.718 60.485">
    <defs>
        <style>
            .cls-1{fill:#ffd246}.cls-2{fill:#3c277a}
        </style>
    </defs>
    <g id="noun_distribution_696287" transform="translate(-8.5 -15)">
        <circle id="Ellipse_298" cx="8.5" cy="8.5" r="8.5" class="cls-1" data-name="Ellipse 298" transform="translate(8.5 37.485)"/>
        <circle id="Ellipse_299" cx="8.5" cy="8.5" r="8.5" class="cls-1" data-name="Ellipse 299" transform="translate(48.5 15.485)"/>
        <circle id="Ellipse_300" cx="8.5" cy="8.5" r="8.5" class="cls-1" data-name="Ellipse 300" transform="translate(48.5 58.485)"/>
        <path id="Path_1427" d="M73.752 37.466a8.634 8.634 0 0 0-8.085 5.616h-8.545a11.212 11.212 0 0 0-14.578-8.489l-3.138-5.013a8.6 8.6 0 1 0-3.657 2.3l3.036 4.851a11.22 11.22 0 0 0 .192 17.2l-3.082 4.729a8.667 8.667 0 1 0 3.617 2.362L42.8 55.98a11.235 11.235 0 0 0 14.322-8.58h8.1a8.636 8.636 0 1 0 8.533-9.937zM46.1 52.155a6.913 6.913 0 1 1 6.913-6.913 6.921 6.921 0 0 1-6.913 6.913z" class="cls-2" data-name="Path 1427" transform="translate(-2.175)"/>
    </g>
</svg>
