<svg xmlns="http://www.w3.org/2000/svg" width="90" height="88.028" viewBox="0 0 90 88.028">
    <defs>
        <style>
            .cls-1{fill:#3c277a}.cls-2{fill:#ffd246}
        </style>
    </defs>
    <g id="noun_Sustainability_610524" transform="translate(-5 -5.986)">
        <g id="Group_370" data-name="Group 370">
            <path id="Path_1379" d="M74.248 27.414l-1.6-3.021-.281 3.407c-.324 3.953-3.914 6.121-7 7.569-1.287.6-2.618 1.182-3.9 1.742a81.115 81.115 0 0 0-8.067 3.874c-4.347 2.485-7.39 5.4-9.044 8.674a33.007 33.007 0 0 0-.88 1.886 17.4 17.4 0 0 0-5.641-3.193C28.64 45.089 22.692 42.04 21.5 38.071a8.853 8.853 0 0 0-.774 2.043c-.043.188-2.882 19.58 7.671 24.715a83.886 83.886 0 0 0 9.517 3.828c4.5 1.572 7.478 2.613 8.832 5.5l.27.576.65.016h.622l.29-.572c.241-.488.255-2.953-1.241-6.24l.209.284.5-2.1a13.168 13.168 0 0 0 .232-1.53h.3A26.351 26.351 0 0 0 66.5 57.939 30.938 30.938 0 0 0 75.79 39.4a19.488 19.488 0 0 0-1.542-11.986zM47.67 73.747c-.005 0-.01 0-.015-.017-2.4-5.117-8.837-4.944-18.816-9.8-9.815-4.774-7.157-23.592-7.133-23.592v.016c-.173 1.614 6.872 5.776 15.8 8.942a15.287 15.287 0 0 1 6.663 4.351 12.747 12.747 0 0 1 2.195 3.648 14.464 14.464 0 0 1 .813 3.027 16.317 16.317 0 0 1 .192 2.454 14.6 14.6 0 0 1-.292 3.11 30.714 30.714 0 0 0-2.726-3.217 22.526 22.526 0 0 0-7.965-5.526 7.288 7.288 0 0 0-.985-.305.884.884 0 0 0-.116-.015c-.021 0-.025.006-.009.015.383.229.75.463 1.11.7a31.993 31.993 0 0 1 6.069 5.008 25.48 25.48 0 0 1 1.55 1.813c3.953 5.147 3.81 9.388 3.665 9.388zm27.13-34.5A29.983 29.983 0 0 1 65.822 57.2a25.26 25.26 0 0 1-17.245 6.389h-.216c.016-.291.025-.6.025-.924a17.157 17.157 0 0 0-.205-2.583 15.921 15.921 0 0 0-.375-1.736 16.609 16.609 0 0 1 3.07-3.623c2.517-2.253 5.459-3.918 8.15-5.942-3.008 1.741-6.158 3.229-9.017 5.229a22.4 22.4 0 0 0-2.9 2.391 13.661 13.661 0 0 0-2.136-3.426 15.96 15.96 0 0 0-.7-.757c.3-.715.625-1.415.975-2.106 1.81-3.575 5.247-6.312 8.65-8.257 3.805-2.187 7.922-3.725 11.886-5.578 3.59-1.681 7.224-4.08 7.578-8.393A18.5 18.5 0 0 1 74.8 39.252z" class="cls-1" data-name="Path 1379"/>
            <path id="Path_1380" d="M41.014 9.721L37.281 16.2l-4.336 1.166 2.579-4.474A39.995 39.995 0 0 0 9.488 61.229l-3.013.811a43.108 43.108 0 0 1 28.383-52.2L30.2 7.153l4.336-1.167z" class="cls-2" data-name="Path 1380"/>
            <path id="Path_1381" d="M95 57.185l-1.162 4.336-6.477 3.742-3.74-6.479 1.162-4.338 2.582 4.476A40.087 40.087 0 0 0 58.515 12.2l.809-3.013a43.208 43.208 0 0 1 31.037 50.68z" class="cls-2" data-name="Path 1381"/>
            <path id="Path_1382" d="M78.662 81.381a43.348 43.348 0 0 1-30.585 12.633A42.912 42.912 0 0 1 19.263 82.9l-.006 5.379-3.17-3.179.011-7.479 7.48.01 3.171 3.182-5.164-.013a39.987 39.987 0 0 0 54.876-1.624z" class="cls-2" data-name="Path 1382"/>
        </g>
    </g>
</svg>
