<svg xmlns="http://www.w3.org/2000/svg" width="75.176" height="75.115" viewBox="0 0 75.176 75.115">
    <defs>
        <style>
            .cls-1{fill:#ffd246}.cls-2{fill:#3c277a}
        </style>
    </defs>
    <g id="noun_follow_up_1954437" data-name="noun_follow up_1954437" transform="translate(-13.318 -13.515)">
        <path id="Path_1387" d="M24.509 223.286a11.944 11.944 0 1 0-2.422-2.506l-8.259 8.259a1.742 1.742 0 0 0 2.463 2.464l7.228-7.228zm1.324-15.457a8.452 8.452 0 1 1-2.5 5.994 8.42 8.42 0 0 1 2.5-5.994z" class="cls-1" data-name="Path 1387" transform="translate(0 -159.188)"/>
        <path id="Path_1388" d="M58.393 13.53a37.571 37.571 0 0 0-37.47 28.32.958.958 0 0 0 1.858.469 35.654 35.654 0 0 1 35.558-26.873 35.64 35.64 0 1 1-24.6 62.33L35 76.44a.488.488 0 0 0-.323-.823l-4.25-.276a.488.488 0 0 0-.517.545l.5 4.23a.488.488 0 0 0 .839.278l1.163-1.225a37.361 37.361 0 0 0 23.868 9.447q.536.015 1.069.015a37.558 37.558 0 0 0 1.04-75.1z" class="cls-2" data-name="Path 1388" transform="translate(-6.401)"/>
        <path id="Path_1389" d="M14.938 236.583a.992.992 0 0 0 .118-.007.958.958 0 0 0 .834-1.068 36 36 0 0 1-.251-5.379c.023-.83.076-1.673.157-2.505a.959.959 0 0 0-1.908-.186 38.312 38.312 0 0 0-.165 2.637 37.916 37.916 0 0 0 .264 5.667.958.958 0 0 0 .951.841z" data-name="Path 1389" transform="translate(-.33 -180.057)"/>
        <path id="Path_1390" d="M244.252 284.668h4.682V282.5h-5.977c-.6 0-1.458.6-1.458 1.194v21.72c0 .6.861 1.093 1.458 1.093h12.524a1.059 1.059 0 0 0 1.042-1.093v-14.24h-2.013V302.2c0 .254-.068.587-.322.587h-9.936a.7.7 0 0 1-.584-.587v-17.213c0-.251.332-.319.584-.319zm4.968 19.632a.685.685 0 1 1-.686.685.685.685 0 0 1 .686-.685z" class="cls-1" data-name="Path 1390" transform="translate(-192.84 -227.323)"/>
        <g id="Group_371" data-name="Group 371" transform="translate(39.677 23.426)">
            <path id="Path_1391" d="M208.624 77.619c-.079-.03-.164-.119-.253-.119h-20.907c-.1 0-.2.094-.282.13l10.712 6.785z" class="cls-2" data-name="Path 1391" transform="translate(-186.612 -77.5)"/>
            <path id="Path_1392" d="M219.892 103.141H205.8V92.995L195.277 99.7a.938.938 0 0 1-.527.162 1.217 1.217 0 0 1-.609-.162L183.5 92.995v12.2a.812.812 0 0 0 .31.571v.015a.912.912 0 0 0 .543.15h17.579V127.7a1.476 1.476 0 0 0 1.546 1.308h16.414a1.213 1.213 0 0 0 1.245-1.308v-23.037a1.4 1.4 0 0 0-1.245-1.522zm-2.414 15.024h-11.62a.7.7 0 1 1 0-1.394h11.62a.7.7 0 0 1 0 1.394zm0-3.407h-11.62a.7.7 0 1 1 0-1.394h11.62a.7.7 0 0 1 0 1.394z" class="cls-2" data-name="Path 1392" transform="translate(-183.5 -90.595)"/>
        </g>
    </g>
</svg>
