<svg xmlns="http://www.w3.org/2000/svg" width="85.038" height="65.281" viewBox="0 0 85.038 65.281">
    <defs>
        <style>
            .cls-1{fill:#ffd246}.cls-2{fill:#3c277a}
        </style>
    </defs>
    <g id="noun_dashboard_1245750" transform="translate(-7.481 -17.36)">
        <path id="Path_1393" d="M33 40.951l8.711-8.711c-.151-.245-.31-.484-.475-.718l-8.926 8.925z" class="cls-1" data-name="Path 1393"/>
        <path id="Path_1394" d="M31.524 39.873l9.129-9.13c-.178-.219-.362-.43-.553-.638l-9.264 9.265z" class="cls-1" data-name="Path 1394"/>
        <path id="Path_1395" d="M30.144 36.145l7.9-7.9c-.23-.169-.465-.333-.705-.488l-7.19 7.19v1.193z" class="cls-1" data-name="Path 1395"/>
        <path id="Path_1396" d="M30.144 33.59l6.342-6.34a12.44 12.44 0 0 0-.79-.4l-5.552 5.55z" class="cls-1" data-name="Path 1396"/>
        <path id="Path_1397" d="M30.144 31.036l4.6-4.6c-.29-.112-.586-.212-.885-.306l-3.716 3.715v1.192z" class="cls-1" data-name="Path 1397"/>
        <path id="Path_1398" d="M30.144 28.481l2.644-2.644c-.33-.075-.666-.135-1-.187l-1.64 1.64z" class="cls-1" data-name="Path 1398"/>
        <path id="Path_1399" d="M30.144 38.7l9.283-9.283c-.2-.195-.411-.385-.626-.567l-8.657 8.657z" class="cls-1" data-name="Path 1399"/>
        <path id="Path_1400" d="M30.554 25.517a14.054 14.054 0 0 0-.41-.019v.43z" data-name="Path 1400"/>
        <path id="Path_1401" d="M34.478 42.03l8.116-8.116c-.121-.273-.25-.542-.388-.805l-8.418 8.418z" class="cls-1" data-name="Path 1401"/>
        <path id="Path_1402" d="M37.432 44.188l6.27-6.27c-.043-.347-.1-.691-.162-1.03l-6.8 6.8z" class="cls-1" data-name="Path 1402"/>
        <path id="Path_1403" d="M35.954 43.108l7.318-7.317c-.086-.306-.18-.608-.286-.9l-7.721 7.721z" class="cls-1" data-name="Path 1403"/>
        <path id="Path_1404" d="M40.385 46.347l2.9-2.906a13.807 13.807 0 0 0 .336-1.526L39.7 45.844z" class="cls-1" data-name="Path 1404"/>
        <path id="Path_1405" d="M38.908 45.268l4.88-4.88c.013-.246.021-.493.021-.744 0-.154-.006-.306-.011-.459l-5.579 5.58z" class="cls-1" data-name="Path 1405"/>
        <path id="Path_1406" d="M41.6 47.231a14.166 14.166 0 0 0 .894-1.627l-1.317 1.317z" class="cls-1" data-name="Path 1406"/>
        <g id="Group_372" data-name="Group 372">
            <path id="Path_1407" d="M87.743 82.641H12.257a4.781 4.781 0 0 1-4.776-4.776V22.137a4.782 4.782 0 0 1 4.776-4.777h75.486a4.782 4.782 0 0 1 4.776 4.777v55.728a4.781 4.781 0 0 1-4.776 4.776zm-75.486-63.37a2.869 2.869 0 0 0-2.866 2.866v55.728a2.87 2.87 0 0 0 2.866 2.866h75.486a2.87 2.87 0 0 0 2.866-2.866V22.137a2.869 2.869 0 0 0-2.866-2.866z" class="cls-2" data-name="Path 1407"/>
        </g>
        <path id="Rectangle_701" d="M0 0h3.667v12.001H0z" class="cls-2" data-name="Rectangle 701" transform="translate(56.163 36.164)"/>
        <path id="Rectangle_702" d="M0 0h3.666v11.001H0z" class="cls-1" data-name="Rectangle 702" transform="translate(61.853 37.165)"/>
        <path id="Rectangle_703" d="M0 0h3.666v9H0z" class="cls-1" data-name="Rectangle 703" transform="translate(67.541 39.166)"/>
        <path id="Rectangle_704" d="M0 0h3.666v14.002H0z" class="cls-2" data-name="Rectangle 704" transform="translate(73.23 34.163)"/>
        <path id="Rectangle_705" d="M0 0h3.666v14.002H0z" class="cls-1" data-name="Rectangle 705" transform="translate(78.919 34.163)"/>
        <path id="Path_1408" d="M82.4 56.386l-19.25 9.459-7.007-4.245-12.638 5.748-20.475 1.807-8.063 5.731h67.377z" class="cls-2" data-name="Path 1408"/>
        <path id="Path_1409" d="M29.625 53.768a14.16 14.16 0 0 1-.532-28.311v14.01h.007l11.837 8.649a14.144 14.144 0 0 1-11.312 5.652z" class="cls-1" data-name="Path 1409"/>
    </g>
</svg>
